<?xml version="1.0" encoding="UTF-8" standalone="no"?>
<svg
   xmlns:svg="http://www.w3.org/2000/svg"
   xmlns="http://www.w3.org/2000/svg"
   version="1.1"
   width="20"
   height="36"><defs
     id="defs14" /><path
     d="M 15.12475,18.861796 10.74844,0.70600627 C 10.64802,0.28924627 10.27378,-0.00467373 9.8449604,5.6272697e-5 9.4163204,0.00336627 9.0465204,0.30166627 8.9525504,0.71983627 L 5.4924805,16.114716 C 5.4694205,16.181186 5.4529205,16.250786 5.4456405,16.323176 L 4.8719905,18.875576 C 4.7603405,19.372406 5.0725305,19.865686 5.5693605,19.977346 6.0660804,20.089056 6.5594804,19.776796 6.6711304,19.279966 L 7.1074604,17.338546 H 12.86084 L 13.33218,19.293866 C 13.43402,19.716296 13.81156,19.999996 14.22779,19.999996 14.29934,19.999996 14.37197,19.991596 14.44459,19.974086 14.93959,19.854866 15.2441,19.356846 15.12475,18.861796 z M 9.8835204,4.9869861 11.13332,10.171976 H 8.7181804 L 9.8835204,4.9869861 z M 7.5219104,15.494516 8.3037304,12.016056 H 11.57787 L 12.41635,15.494516 H 7.5219104 z"
     id="path12"
     style="fill:#c80000" /></svg>
