<?xml version="1.0" encoding="UTF-8"?>
<svg version="1.1" viewBox="0 0 50 50" xmlns="http://www.w3.org/2000/svg">
 <path fill="#918a6f" d="m25 32.087c-5.462 0-9.906-3.178-9.906-7.085 0-3.908 4.444-7.089 9.906-7.089 5.462 2e-3 9.906 3.182 9.906 7.089s-4.444 7.085-9.906 7.085zm0-13.155c-4.901 0-8.888 2.723-8.888 6.071 0 3.345 3.987 6.066 8.888 6.066s8.887-2.721 8.887-6.066c1e-3 -3.346-3.985-6.069-8.887-6.071z"/>
 <path fill="#918a6f" d="m24.3 26.34c0 0.336-0.088 0.652-0.266 0.95s-0.415 0.529-0.713 0.694c-0.335 0.184-0.672 0.276-1.007 0.276h-3.269v-6.52h3.041c0.475 0 0.849 0.076 1.121 0.228 0.596 0.336 0.893 0.833 0.893 1.492 0 0.532-0.216 0.979-0.646 1.34 0.564 0.413 0.846 0.926 0.846 1.54zm-1.368-2.794c0-0.196-0.076-0.352-0.228-0.466s-0.358-0.171-0.618-0.171h-1.853v1.302h1.853c0.259 0 0.463-0.06 0.608-0.181 0.159-0.126 0.238-0.288 0.238-0.484zm0.209 2.728c0-0.26-0.102-0.472-0.304-0.637-0.209-0.171-0.459-0.257-0.751-0.257h-1.853v1.711h1.853c0.311 0 0.564-0.076 0.76-0.228 0.197-0.152 0.295-0.348 0.295-0.589z"/>
 <path fill="#918a6f" d="m30.9 28.26h-1.302l-1.055-2.557h-1.73v2.557h-1.169v-6.52h2.994c0.431 0 0.805 0.092 1.121 0.276 0.672 0.393 1.007 0.966 1.007 1.72 0 0.773-0.352 1.35-1.055 1.73zm-1.302-4.524c0-0.253-0.086-0.456-0.257-0.608-0.164-0.146-0.39-0.219-0.675-0.219h-1.853v1.625h1.853c0.273 0 0.497-0.073 0.675-0.219 0.171-0.145 0.257-0.338 0.257-0.579z"/>
</svg>
