<?xml version="1.0" encoding="UTF-8"?>
<svg version="1.1" width="50" height="50" xmlns="http://www.w3.org/2000/svg">
 <g fill="none" stroke-linecap="round" stroke-linejoin="round" stroke-miterlimit="10">
  <path d="m21.457 25c0-1.957 1.586-3.543 3.543-3.543s3.543 1.586 3.543 3.543-1.586 3.543-3.543 3.543-3.543-1.586-3.543-3.543z" stroke="#008080" stroke-width=".7087"/>
  <path d="m21.457 25c0-1.957 1.586-3.543 3.543-3.543s3.543 1.586 3.543 3.543-1.586 3.543-3.543 3.543-3.543-1.586-3.543-3.543z" stroke="#008080" stroke-width="1.417"/>
  <line x1="21.932" x2="18.863" y1="26.772" y2="28.543" stroke="#008080" stroke-width=".7087"/>
  <line x1="21.932" x2="18.863" y1="26.772" y2="28.543" stroke="#008080" stroke-width="1.417"/>
  <line x1="25" x2="25" y1="28.543" y2="32.087" stroke="#008080" stroke-width=".7087"/>
  <line x1="25" x2="25" y1="28.543" y2="32.087" stroke="#008080" stroke-width="1.417"/>
  <line x1="28.069" x2="31.137" y1="26.772" y2="28.543" stroke="#008080" stroke-width=".7087"/>
  <line x1="28.069" x2="31.137" y1="26.772" y2="28.543" stroke="#008080" stroke-width="1.417"/>
  <line x1="28.069" x2="31.137" y1="23.228" y2="21.457" stroke="#008080" stroke-width=".7087"/>
  <line x1="28.069" x2="31.137" y1="23.228" y2="21.457" stroke="#008080" stroke-width="1.417"/>
  <line x1="21.932" x2="18.863" y1="23.228" y2="21.457" stroke="#008080" stroke-width=".7087"/>
  <line x1="21.932" x2="18.863" y1="23.228" y2="21.457" stroke="#008080" stroke-width="1.417"/>
  <line x1="25" x2="25" y1="21.457" y2="17.913" stroke="#008080" stroke-width=".7087"/>
  <line x1="25" x2="25" y1="21.457" y2="17.913" stroke="#008080" stroke-width="1.417"/>
 </g>
</svg>
