<?xml version="1.0" encoding="UTF-8" standalone="no"?>
<svg xmlns:svg="http://www.w3.org/2000/svg" xmlns="http://www.w3.org/2000/svg" version="1.1" width="36" height="36">
<path fill="#800080" d="M 23.12475,18.861796 18.74844,0.70600627 C 18.64802,0.28924627 18.27378,-0.00467373 17.844961,5.6272697e-5 17.416321,0.00336627 17.046521,0.30166627 16.952551,0.71983627 L 13.492481,16.114716 c -0.02306,0.06647 -0.03956,0.13607 -0.04684,0.20846 l -0.57365,2.5524 c -0.11165,0.49683 0.20054,0.99011 0.69737,1.10177 0.49672,0.11171 0.99012,-0.20055 1.10177,-0.69738 l 0.43633,-1.94142 h 5.753379 l 0.47134,1.95532 c 0.10184,0.42243 0.47938,0.70613 0.89561,0.70613 0.07155,0 0.14418,-0.0084 0.2168,-0.02591 0.495,-0.11922 0.79951,-0.61724 0.68016,-1.11229 z M 17.883521,4.9869861 19.13332,10.171976 h -2.415139 l 1.16534,-5.1849899 z m -2.36161,10.5075299 0.78182,-3.47846 h 3.274139 l 0.83848,3.47846 h -4.894439 z"/>
</svg>
