<?xml version="1.0" encoding="UTF-8" standalone="no"?>
<svg xmlns:rdf="http://www.w3.org/1999/02/22-rdf-syntax-ns#" xmlns="http://www.w3.org/2000/svg" height="25" width="25" version="1.1">
 <path id="path4" fill="#800080" d="m18.236,12.512c0.017-0.9243-1.065-1.1288-1.783-1.0045-2.996,0.0185-5.9971-0.039-8.9906,0.0309-1.1389,0.2857-0.7974,2.1706,0.3989,1.9736,3.1568,0.005,6.3147,0.009,9.4717-0.001,0.497-0.039,0.915-0.502,0.903-0.999z"/>
 <path id="path6" fill="#800080" d="m12.492,6.3758c2.7533,0.0209,5.6923,0.8274,7.6153,2.9014,1.011,1.0774,1.613,2.6016,1.258,4.0783-0.42,2.159-2.361,3.593-4.273,4.405-3.122,1.248-6.7806,1.156-9.8266-0.275-1.6365-0.823-3.2127-2.176-3.637-4.031-0.38425-1.6788,0.3293-3.454,1.6219-4.5514,1.9366-1.7942,4.6522-2.5178,7.2414-2.5273zm0,13.281c3.1293-0.012,6.4643-1.03,8.5603-3.465,1.106-1.281,1.726-3.047,1.324-4.728-0.445-2.2917-2.356-3.9652-4.379-4.9295-3.523-1.6365-7.8004-1.5803-11.286,0.1292-1.8138,0.9357-3.5031,2.4685-4.049,4.4955-0.51089,1.9798,0.21413,4.1658,1.7275,5.5238,2.127,2.079,5.1823,2.969,8.1026,2.974z"/>
</svg>
