<?xml version="1.0" encoding="UTF-8"?>
<svg version="1.1" width="50" height="50" xmlns="http://www.w3.org/2000/svg">
 <path fill="#6f5c10" d="m25.636 29.756c-5.462 0-9.906-3.178-9.906-7.085 0-3.908 4.444-7.089 9.906-7.089 5.462 2e-3 9.906 3.182 9.906 7.089s-4.444 7.085-9.906 7.085zm0-13.155c-4.901 0-8.888 2.723-8.888 6.071 0 3.345 3.987 6.066 8.888 6.066s8.887-2.721 8.887-6.066c1e-3 -3.346-3.985-6.069-8.887-6.071z"/>
 <path fill="#6f5c10" d="m24.914 24.009c0 0.336-0.088 0.653-0.266 0.95-0.178 0.298-0.415 0.529-0.713 0.694-0.335 0.184-0.672 0.276-1.007 0.276h-3.269v-6.52h3.041c0.475 0 0.849 0.076 1.121 0.228 0.596 0.336 0.893 0.833 0.893 1.492 0 0.532-0.216 0.979-0.646 1.34 0.564 0.413 0.846 0.926 0.846 1.54zm-1.369-2.794c0-0.196-0.076-0.352-0.228-0.466s-0.358-0.171-0.618-0.171h-1.853v1.302h1.853c0.259 0 0.463-0.06 0.608-0.181 0.16-0.126 0.238-0.287 0.238-0.484zm0.21 2.728c0-0.259-0.102-0.471-0.304-0.637-0.209-0.171-0.459-0.257-0.751-0.257h-1.853v1.711h1.853c0.311 0 0.564-0.076 0.76-0.228 0.197-0.152 0.295-0.348 0.295-0.589z"/>
 <path fill="#6f5c10" d="m31.614 25.929h-1.331l-1.663-3.383-1.235 1.549v1.834h-1.169v-6.52h1.169v2.842l2.309-2.842h1.502l-1.73 2.129z"/>
</svg>
