<?xml version="1.0" encoding="UTF-8"?>
<svg version="1.1" width="50" height="50" xmlns="http://www.w3.org/2000/svg">
 <line x1="24.173" x2="24.173" y1="19.33" y2="25" fill="none" stroke="#960000" stroke-linejoin="round" stroke-miterlimit="10" stroke-width="1.4173"/>
 <path d="m24.174 9.688c2.345 0 4.252 1.907 4.252 4.252s-1.907 4.252-4.252 4.252c-2.344 0-4.252-1.907-4.252-4.252s1.908-4.252 4.252-4.252m0-1.417c-3.131 0-5.669 2.538-5.669 5.669s2.538 5.669 5.669 5.669 5.669-2.538 5.669-5.669-2.538-5.669-5.669-5.669z" fill="#960000"/>
 <polygon transform="translate(-1016.8,-433.31)" points="1042.7 440.07 1046.2 442.13 1048.3 434.44" fill="#960000"/>
 <line x1="19.853" x2="28.356" y1="21.306" y2="6.577" fill="none" stroke="#960000" stroke-linejoin="round" stroke-width="1.4173"/>
</svg>
