<?xml version="1.0" encoding="UTF-8"?>
<svg version="1.1" viewBox="0 0 50 50" xmlns="http://www.w3.org/2000/svg">
 <path d="m33.504 25c0 2.26-1.735 4.101-4.074 4.101-1.709 0-3.365-1.262-4.443-2.655-1.051 1.393-2.734 2.655-4.416 2.655-2.366 0-4.075-1.84-4.075-4.101 0-2.287 1.709-4.101 4.075-4.101 1.682 0 3.365 1.262 4.416 2.655 1.078-1.393 2.734-2.655 4.443-2.655 2.339 1e-3 4.074 1.814 4.074 4.101zm-15.325 0c0 1.393 1.051 2.524 2.393 2.524 1.578 0 2.892-1.656 3.496-2.524-0.604-0.867-1.919-2.524-3.496-2.524-1.342 1e-3 -2.393 1.131-2.393 2.524zm7.728 0c0.631 0.867 1.919 2.524 3.523 2.524 1.314 0 2.366-1.131 2.366-2.524s-1.051-2.524-2.366-2.524c-1.604 1e-3 -2.892 1.657-3.523 2.524z" fill="#960000"/>
</svg>
